<?xml version="1.0" encoding="utf-8"?>
<!-- Generator: Adobe Illustrator 27.5.0, SVG Export Plug-In . SVG Version: 6.00 Build 0)  -->
<svg version="1.1" xmlns="http://www.w3.org/2000/svg" xmlns:xlink="http://www.w3.org/1999/xlink" x="0px" y="0px"
	 viewBox="0 0 750 500" style="enable-background:new 0 0 750 500;" xml:space="preserve">
<g id="BACKGROUND">
	<g>
		<rect style="fill:#F5F5F5;" width="750" height="500"/>
	</g>
</g>
<g id="OBJECTS">
	<g>
		<g>
			<defs>
				<rect id="SVGID_1_" width="750" height="500"/>
			</defs>
			<clipPath id="SVGID_00000119816018996517886640000007457246874179933345_">
				<use xlink:href="#SVGID_1_"  style="overflow:visible;"/>
			</clipPath>
			<g style="clip-path:url(#SVGID_00000119816018996517886640000007457246874179933345_);">
				<g>
					<g>
						<g>
							<polygon style="fill:#001270;" points="-0.863,-32.626 -40.725,-32.626 -0.863,36.416 19.067,1.895 							"/>
						</g>
						<g>
							<polygon style="fill:#FFD531;" points="-0.863,36.416 19.067,70.936 58.928,70.936 19.067,1.895 							"/>
							<polygon style="fill:#51299F;" points="58.928,1.895 19.067,1.895 58.928,70.936 78.859,36.416 							"/>
						</g>
						<g>
							<polygon style="fill:#D32C9D;" points="58.928,1.895 78.859,36.416 118.72,36.416 78.859,-32.626 							"/>
							<polygon style="fill:#D32C9D;" points="118.72,-32.626 78.859,-32.626 118.72,36.416 138.651,1.895 							"/>
						</g>
						<g>
							<polygon style="fill:#FF2F7F;" points="118.72,36.416 138.651,70.936 178.512,70.936 138.651,1.895 							"/>
						</g>
						<g>
							<polygon style="fill:#FF2F7F;" points="178.512,1.895 198.443,36.416 238.304,36.416 198.443,-32.626 							"/>
						</g>
					</g>
					<g>
						<g>
							<polygon style="fill:#FF2F7F;" points="-0.863,36.416 -40.725,36.416 -0.863,105.457 19.067,70.936 							"/>
						</g>
						<g>
							<polygon style="fill:#51299F;" points="-0.863,105.457 19.067,139.978 58.928,139.978 19.067,70.936 							"/>
							<polygon style="fill:#D32C9D;" points="58.928,70.936 19.067,70.936 58.928,139.978 78.859,105.457 							"/>
						</g>
						<g>
							<polygon style="fill:#FF2F7F;" points="58.928,70.936 78.859,105.457 118.72,105.457 78.859,36.416 							"/>
							<polygon style="fill:#D32C9D;" points="118.72,36.416 78.859,36.416 118.72,105.457 138.651,70.936 							"/>
						</g>
						<g>
							<polygon style="fill:#FF8300;" points="118.72,105.457 138.651,139.978 178.512,139.978 138.651,70.936 							"/>
						</g>
						<g>
							<polygon style="fill:#E0E0E0;" points="178.512,70.936 198.443,105.457 238.304,105.457 198.443,36.416 							"/>
						</g>
					</g>
					<g>
						<g>
							<polygon style="fill:#FF8300;" points="-0.863,105.457 -40.725,105.457 -0.863,174.499 19.067,139.978 							"/>
						</g>
						<g>
							<polygon style="fill:#FF8300;" points="-0.863,174.499 19.067,209.02 58.928,209.02 19.067,139.978 							"/>
							<polygon style="fill:#FFC431;" points="58.928,139.978 19.067,139.978 58.928,209.02 78.859,174.499 							"/>
						</g>
						<g>
							<polygon style="fill:#FFC431;" points="58.928,139.978 78.859,174.499 118.72,174.499 78.859,105.457 							"/>
							<polygon style="fill:#FFD531;" points="118.72,105.457 78.859,105.457 118.72,174.499 138.651,139.978 							"/>
						</g>
						<g>
							<polygon style="fill:#FFE994;" points="178.512,139.978 138.651,139.978 178.512,209.02 198.443,174.499 							"/>
						</g>
						<g>
							<polygon style="fill:#FFE994;" points="238.304,105.457 198.443,105.457 238.304,174.499 258.234,139.978 							"/>
						</g>
					</g>
					<g>
						<g>
							<polygon style="fill:#51299F;" points="-0.863,174.499 -40.725,174.499 -0.863,243.54 19.067,209.02 							"/>
						</g>
						<g>
							<polygon style="fill:#FF2F7F;" points="-0.863,243.54 19.067,278.061 58.928,278.061 19.067,209.02 							"/>
							<polygon style="fill:#D32C9D;" points="58.928,209.02 19.067,209.02 58.928,278.061 78.859,243.54 							"/>
						</g>
						<g>
							<polygon style="fill:#FF8300;" points="58.928,209.02 78.859,243.54 118.72,243.54 78.859,174.499 							"/>
							<polygon style="fill:#FFD531;" points="118.72,174.499 78.859,174.499 118.72,243.54 138.651,209.02 							"/>
						</g>
					</g>
					<g>
						<g>
							<polygon style="fill:#D32C9D;" points="-0.863,243.54 -40.725,243.54 -0.863,312.582 19.067,278.061 							"/>
						</g>
						<g>
							<polygon style="fill:#FF8300;" points="-0.863,312.582 19.067,347.103 58.928,347.103 19.067,278.061 							"/>
							<polygon style="fill:#51299F;" points="58.928,278.061 19.067,278.061 58.928,347.103 78.859,312.582 							"/>
						</g>
						<g>
							<polygon style="fill:#FFC431;" points="58.928,278.061 78.859,312.582 118.72,312.582 78.859,243.54 							"/>
							<polygon style="fill:#FFD531;" points="118.72,243.54 78.859,243.54 118.72,312.582 138.651,278.061 							"/>
						</g>
						<g>
							<polygon style="fill:#E0E0E0;" points="178.512,278.061 138.651,278.061 178.512,347.103 198.443,312.582 							"/>
						</g>
					</g>
					<g>
						<g>
							<polygon style="fill:#D32C9D;" points="-0.863,312.582 -40.725,312.582 -0.863,381.624 19.067,347.103 							"/>
						</g>
						<g>
							<polygon style="fill:#51299F;" points="-0.863,381.624 19.067,416.144 58.928,416.144 19.067,347.103 							"/>
							<polygon style="fill:#FF8300;" points="58.928,347.103 19.067,347.103 58.928,416.144 78.859,381.624 							"/>
						</g>
						<g>
							<polygon style="fill:#D32C9D;" points="58.928,347.103 78.859,381.624 118.72,381.624 78.859,312.582 							"/>
							<polygon style="fill:#FFD531;" points="118.72,312.582 78.859,312.582 118.72,381.624 138.651,347.103 							"/>
						</g>
						<g>
							<polygon style="fill:#FFE994;" points="118.72,381.624 138.651,416.144 178.512,416.144 138.651,347.103 							"/>
						</g>
					</g>
					<g>
						<g>
							<polygon style="fill:#FF2F7F;" points="-0.863,381.624 -40.725,381.624 -0.863,450.665 19.067,416.144 							"/>
						</g>
						<g>
							<polygon style="fill:#D32C9D;" points="-0.863,450.665 19.067,485.186 58.928,485.186 19.067,416.144 							"/>
							<polygon style="fill:#FF8300;" points="58.928,416.144 19.067,416.144 58.928,485.186 78.859,450.665 							"/>
						</g>
						<g>
							<polygon style="fill:#FFD531;" points="58.928,416.144 78.859,450.665 118.72,450.665 78.859,381.624 							"/>
							<polygon style="fill:#FFD531;" points="118.72,381.624 78.859,381.624 118.72,450.665 138.651,416.144 							"/>
						</g>
						<g>
							<polygon style="fill:#FF8300;" points="118.72,450.665 138.651,485.186 178.512,485.186 138.651,416.144 							"/>
							<polygon style="fill:#FFE994;" points="178.512,416.144 138.651,416.144 178.512,485.186 198.443,450.665 							"/>
						</g>
					</g>
					<g>
						<g>
							<polygon style="fill:#001270;" points="-0.863,450.665 -40.725,450.665 -0.863,519.707 19.067,485.186 							"/>
						</g>
						<g>
							<polygon style="fill:#FF8300;" points="58.928,485.186 19.067,485.186 58.928,554.228 78.859,519.707 							"/>
						</g>
						<g>
							<polygon style="fill:#FFD531;" points="58.928,485.186 78.859,519.707 118.72,519.707 78.859,450.665 							"/>
							<polygon style="fill:#FFE994;" points="118.72,450.665 78.859,450.665 118.72,519.707 138.651,485.186 							"/>
						</g>
						<g>
							<polygon style="fill:#D32C9D;" points="178.512,485.186 138.651,485.186 178.512,554.228 198.443,519.707 							"/>
						</g>
						<g>
							<polygon style="fill:#FF8300;" points="238.304,450.665 198.443,450.665 238.304,519.707 258.234,485.186 							"/>
						</g>
					</g>
				</g>
				<g>
					<g>
						<g>
							<polygon style="fill:#FF2F4D;" points="774.224,536.967 814.085,536.967 774.224,467.926 754.293,502.446 							"/>
						</g>
						<g>
							<polygon style="fill:#001270;" points="774.224,467.926 754.293,433.405 714.432,433.405 754.293,502.446 							"/>
							<polygon style="fill:#51299F;" points="714.432,502.446 754.293,502.446 714.432,433.405 694.501,467.926 							"/>
						</g>
						<g>
							<polygon style="fill:#001270;" points="714.432,502.446 694.501,467.926 654.64,467.926 694.501,536.967 							"/>
							<polygon style="fill:#D32C9D;" points="654.64,536.967 694.501,536.967 654.64,467.926 634.71,502.446 							"/>
						</g>
						<g>
							<polygon style="fill:#FF2F7F;" points="654.64,467.926 634.71,433.405 594.849,433.405 634.71,502.446 							"/>
						</g>
						<g>
							<polygon style="fill:#FF2F7F;" points="594.849,502.446 574.918,467.926 535.057,467.926 574.918,536.967 							"/>
						</g>
					</g>
					<g>
						<g>
							<polygon style="fill:#FF2F7F;" points="774.224,467.926 814.085,467.926 774.224,398.884 754.293,433.405 							"/>
						</g>
						<g>
							<polygon style="fill:#51299F;" points="774.224,398.884 754.293,364.363 714.432,364.363 754.293,433.405 							"/>
							<polygon style="fill:#D32C9D;" points="714.432,433.405 754.293,433.405 714.432,364.363 694.501,398.884 							"/>
						</g>
						<g>
							<polygon style="fill:#FF2F7F;" points="714.432,433.405 694.501,398.884 654.64,398.884 694.501,467.926 							"/>
							<polygon style="fill:#D32C9D;" points="654.64,467.926 694.501,467.926 654.64,398.884 634.71,433.405 							"/>
						</g>
						<g>
							<polygon style="fill:#FFD531;" points="654.64,398.884 634.71,364.363 594.849,364.363 634.71,433.405 							"/>
						</g>
						<g>
							<polygon style="fill:#FFD531;" points="594.849,433.405 574.918,398.884 535.057,398.884 574.918,467.926 							"/>
						</g>
					</g>
					<g>
						<g>
							<polygon style="fill:#FF8300;" points="774.224,398.884 814.085,398.884 774.224,329.842 754.293,364.363 							"/>
						</g>
						<g>
							<polygon style="fill:#FF8300;" points="774.224,329.842 754.293,295.322 714.432,295.322 754.293,364.363 							"/>
							<polygon style="fill:#FFC431;" points="714.432,364.363 754.293,364.363 714.432,295.322 694.501,329.842 							"/>
						</g>
						<g>
							<polygon style="fill:#FFC431;" points="714.432,364.363 694.501,329.842 654.64,329.842 694.501,398.884 							"/>
							<polygon style="fill:#FFD531;" points="654.64,398.884 694.501,398.884 654.64,329.842 634.71,364.363 							"/>
						</g>
						<g>
							<polygon style="fill:#E0E0E0;" points="594.849,364.363 634.71,364.363 594.849,295.322 574.918,329.842 							"/>
						</g>
					</g>
					<g>
						<g>
							<polygon style="fill:#FF2F4D;" points="774.224,329.842 814.085,329.842 774.224,260.801 754.293,295.322 							"/>
						</g>
						<g>
							<polygon style="fill:#51299F;" points="774.224,260.801 754.293,226.28 714.432,226.28 754.293,295.322 							"/>
							<polygon style="fill:#D32C9D;" points="714.432,295.322 754.293,295.322 714.432,226.28 694.501,260.801 							"/>
						</g>
						<g>
							<polygon style="fill:#FFC431;" points="714.432,295.322 694.501,260.801 654.64,260.801 694.501,329.842 							"/>
							<polygon style="fill:#FFD531;" points="654.64,329.842 694.501,329.842 654.64,260.801 634.71,295.322 							"/>
						</g>
					</g>
					<g>
						<g>
							<polygon style="fill:#D32C9D;" points="774.224,260.801 814.085,260.801 774.224,191.759 754.293,226.28 							"/>
						</g>
						<g>
							<polygon style="fill:#FF8300;" points="774.224,191.759 754.293,157.238 714.432,157.238 754.293,226.28 							"/>
							<polygon style="fill:#FF2F7F;" points="714.432,226.28 754.293,226.28 714.432,157.238 694.501,191.759 							"/>
						</g>
						<g>
							<polygon style="fill:#51299F;" points="714.432,226.28 694.501,191.759 654.64,191.759 694.501,260.801 							"/>
							<polygon style="fill:#FFD531;" points="654.64,260.801 694.501,260.801 654.64,191.759 634.71,226.28 							"/>
						</g>
						<g>
							<polygon style="fill:#FFE994;" points="594.849,226.28 634.71,226.28 594.849,157.238 574.918,191.759 							"/>
						</g>
					</g>
					<g>
						<g>
							<polygon style="fill:#D32C9D;" points="774.224,191.759 814.085,191.759 774.224,122.718 754.293,157.238 							"/>
						</g>
						<g>
							<polygon style="fill:#FF2F7F;" points="774.224,122.718 754.293,88.197 714.432,88.197 754.293,157.238 							"/>
							<polygon style="fill:#FF8300;" points="714.432,157.238 754.293,157.238 714.432,88.197 694.501,122.718 							"/>
						</g>
						<g>
							<polygon style="fill:#D32C9D;" points="714.432,157.238 694.501,122.718 654.64,122.718 694.501,191.759 							"/>
							<polygon style="fill:#FFD531;" points="654.64,191.759 694.501,191.759 654.64,122.718 634.71,157.238 							"/>
						</g>
						<g>
							<polygon style="fill:#FFE994;" points="654.64,122.718 634.71,88.197 594.849,88.197 634.71,157.238 							"/>
						</g>
					</g>
					<g>
						<g>
							<polygon style="fill:#FF2F7F;" points="774.224,122.718 814.085,122.718 774.224,53.676 754.293,88.197 							"/>
						</g>
						<g>
							<polygon style="fill:#D32C9D;" points="774.224,53.676 754.293,19.155 714.432,19.155 754.293,88.197 							"/>
							<polygon style="fill:#FF8300;" points="714.432,88.197 754.293,88.197 714.432,19.155 694.501,53.676 							"/>
						</g>
						<g>
							<polygon style="fill:#FFD531;" points="714.432,88.197 694.501,53.676 654.64,53.676 694.501,122.718 							"/>
							<polygon style="fill:#51299F;" points="654.64,122.718 694.501,122.718 654.64,53.676 634.71,88.197 							"/>
						</g>
						<g>
							<polygon style="fill:#FF8300;" points="654.64,53.676 634.71,19.155 594.849,19.155 634.71,88.197 							"/>
							<polygon style="fill:#FFE994;" points="594.849,88.197 634.71,88.197 594.849,19.155 574.918,53.676 							"/>
						</g>
					</g>
					<g>
						<g>
							<polygon style="fill:#FF2F7F;" points="774.224,53.676 814.085,53.676 774.224,-15.366 754.293,19.155 							"/>
						</g>
						<g>
							<polygon style="fill:#FF8300;" points="714.432,19.155 754.293,19.155 714.432,-49.886 694.501,-15.366 							"/>
						</g>
						<g>
							<polygon style="fill:#FFD531;" points="714.432,19.155 694.501,-15.366 654.64,-15.366 694.501,53.676 							"/>
							<polygon style="fill:#FFE994;" points="654.64,53.676 694.501,53.676 654.64,-15.366 634.71,19.155 							"/>
						</g>
						<g>
							<polygon style="fill:#D32C9D;" points="594.849,19.155 634.71,19.155 594.849,-49.886 574.918,-15.366 							"/>
						</g>
						<g>
							<polygon style="fill:#FF8300;" points="535.057,53.676 574.918,53.676 535.057,-15.366 515.126,19.155 							"/>
						</g>
					</g>
				</g>
			</g>
		</g>
	</g>
</g>
</svg>
